<?xml version="1.0" encoding="UTF-8" standalone="no"?>
<svg
   fill-opacity="0.8"
   fill="#3498DB"
   stroke="#000000"
   stroke-width="1"
   version="1.1"
   width="144.25"
   height="186.208"
   viewbox="0 0 144.25 186.208"
   id="svg1"
   sodipodi:docname="hawaii-maui-islandjson (2).svg"
   inkscape:version="1.3 (0e150ed, 2023-07-21)"
   xmlns:inkscape="http://www.inkscape.org/namespaces/inkscape"
   xmlns:sodipodi="http://sodipodi.sourceforge.net/DTD/sodipodi-0.dtd"
   xmlns="http://www.w3.org/2000/svg"
   xmlns:svg="http://www.w3.org/2000/svg">
  <defs
     id="defs1" />
  <sodipodi:namedview
     id="namedview1"
     pagecolor="#ffffff"
     bordercolor="#000000"
     borderopacity="0.25"
     inkscape:showpageshadow="2"
     inkscape:pageopacity="0.0"
     inkscape:pagecheckerboard="0"
     inkscape:deskcolor="#d1d1d1"
     inkscape:zoom="1.2673999"
     inkscape:cx="71.80054"
     inkscape:cy="93.103996"
     inkscape:window-width="1312"
     inkscape:window-height="429"
     inkscape:window-x="0"
     inkscape:window-y="38"
     inkscape:window-maximized="0"
     inkscape:current-layer="svg1" />
  <g
     id="g1"
     transform="translate(0.78901692,-75.745624)">
    <path
       d="m 24.694382,123.15481 -3.088379,-2.53746 -1.647949,-0.39241 -0.720215,2.19743 -0.683594,1.13789 -1.5625,0.32697 -1.818848,-0.23542 -1.403808,-0.497 -0.268555,1.50407 -0.854492,2.65483 -0.109863,1.68695 -0.976563,-0.43153 -2.404785,-0.60155 -0.9643555,-0.43155 -0.8789063,5.03439 L -4.4248422e-4,148.1524 13.329636,167.44945 l 1.184082,1.16242 1.538086,0.33958 4.711914,2.03737 3.625488,2.40289 5.773926,2.52024 2.58789,0.22197 1.818848,-0.47007 1.660156,-0.6529 2.124024,-0.43092 4.846191,-0.16975 2.34375,0.57456 1.000977,1.65833 0.671386,4.68726 0.708008,2.33685 0.793457,1.00518 1.867676,1.71005 1.098633,4.04632 0.561523,18.01956 2.270508,7.17373 5.175781,4.17307 8.825684,0.0391 3.771973,-1.91694 2.197265,-0.82158 0.976563,0.56077 1.037597,1.1867 2.246094,0.1304 7.495117,-1.68225 11.193848,-7.66903 3.869629,-0.87397 3.6377,0.62613 3.78417,1.10874 4.35792,0.60001 3.69873,-1.06959 13.5498,-7.69684 5.92041,-5.11484 5.48096,-7.16475 2.51465,-7.96269 -2.99073,-7.49455 -11.47461,-6.55589 -2.86865,-1.00571 -8.99658,-1.33227 -1.80664,-2.11609 -1.14746,-4.49388 -1.25733,-2.16878 -7.10449,-1.24124 -4.44336,-1.31968 -1.98974,-2.54805 -1.171879,-2.27382 -2.758789,-3.09736 -3.210449,-2.03894 -2.539063,0.8365 -0.512695,-0.86264 -0.561524,-0.4444 -0.683593,-0.16992 -0.854493,-0.11763 -2.661132,-1.11104 -3.283692,-0.53593 -3.405761,-0.0392 -3.063965,0.366 -3.149414,1.15026 -6.408692,4.69209 -2.233886,0.52276 -5.822754,0.28751 -2.990723,0.50967 -3.173828,1.48977 -2.526856,1.54196 -2.404785,0.44428 -2.819824,-1.8817 -5.712891,-13.69795 -1.440429,-2.4971 -1.660157,-2.1312 -7.885742,-8.01613 -2.539062,-1.56946"
       id="path1" />
  </g>
</svg>
